<?xml version="1.0" encoding="UTF-8"?>
<svg width="17px" height="24px" viewBox="0 0 17 24" version="1.1" xmlns="http://www.w3.org/2000/svg" xmlns:xlink="http://www.w3.org/1999/xlink">
    <title>icons / map_marker</title>
    <g id="v4" stroke="none" stroke-width="1" fill="none" fill-rule="evenodd">
        <g id="docs_01.04" transform="translate(-71.000000, -170.000000)" fill="#541E82">
            <g id="Topbar" transform="translate(60.000000, 156.000000)">
                <path d="M19.5011269,14.0000003 C14.809088,13.9987376 11.0037326,17.8528776 11,22.6101117 C11,29.0951157 16.2084051,38.0000003 19.5011269,38.0000003 C22.6563701,38.0000003 28,29.0882605 28,22.6101117 C27.996268,17.85377 24.1922857,14.0000003 19.5011269,14.0000003 L19.5011269,14.0000003 Z M19.5112547,26.6486486 C17.9226802,26.6531309 16.4881784,25.7067697 15.8779857,24.2517133 C15.267793,22.7966569 15.602373,21.1201612 16.7254013,20.0055281 C17.8484295,18.8908949 19.538199,18.5581742 21.0052057,19.1628216 C22.4722125,19.767469 23.4268416,21.1901155 23.4230769,22.7660642 C23.417935,24.9075127 21.6698598,26.6425203 19.5112547,26.6486486 L19.5112547,26.6486486 Z" id="icons-/-map_marker"></path>
            </g>
        </g>
    </g>
</svg>